<svg width="30" height="16" viewBox="0 0 30 16" fill="none" xmlns="http://www.w3.org/2000/svg">
<path fill-rule="evenodd" clip-rule="evenodd" d="M18 0C15.7909 0 14 1.79086 14 4V14C14 15.1046 14.8954 16 16 16C17.1046 16 18 15.1046 18 14V0ZM26 4C26 1.79086 27.7908 0 30 0V14C30 15.1046 29.1045 16 28 16C26.8954 16 26 15.1046 26 14V4ZM23.9999 12C23.9999 13.1046 23.1045 14 21.9999 14C20.8954 14 19.9999 13.1046 19.9999 12C19.9999 10.8954 20.8954 10 21.9999 10C23.1045 10 23.9999 10.8954 23.9999 12Z" fill="#ffffff"/>
<path fill-rule="evenodd" clip-rule="evenodd" d="M8 0H0C0 2.20914 1.79086 4 4 4H12C12 1.79086 10.2091 0 8 0ZM4.58573 9.41421C4.19521 9.02369 4.19521 8.39052 4.58573 8L5.99995 6.58578C6.39047 6.19526 7.02363 6.19526 7.41416 6.58578C7.80468 6.97631 7.80468 7.60947 7.41416 8L5.99995 9.41421C5.60942 9.80474 4.97626 9.80474 4.58573 9.41421ZM0 16C0 13.7909 1.79086 12 4 12H12C12 14.2091 10.2091 16 8 16H0Z" fill="#ffffff"/></svg>