<?xml version="1.0" standalone="no"?>
<!DOCTYPE svg PUBLIC "-//W3C//DTD SVG 20010904//EN"
 "http://www.w3.org/TR/2001/REC-SVG-20010904/DTD/svg10.dtd">
<svg version="1.0" xmlns="http://www.w3.org/2000/svg"
 width="700.000000pt" height="700.000000pt" viewBox="0 0 700.000000 700.000000"
 preserveAspectRatio="xMidYMid meet">
<metadata>
Created by potrace 1.14, written by Peter Selinger 2001-2017
</metadata>
<g transform="translate(0.000000,700.000000) scale(0.100000,-0.100000)"
fill="#000000" stroke="none">
<path d="M1458 4589 c-14 -9 -2 -105 22 -173 63 -184 232 -327 421 -359 53 -9
229 -12 614 -11 297 1 548 2 558 3 21 1 22 23 3 112 -46 218 -224 388 -444
426 -48 8 -1161 10 -1174 2z"/>
<path d="M5505 4593 c-167 -17 -320 -109 -410 -249 -92 -142 -91 -131 -90
-989 l1 -740 22 -45 c50 -101 140 -160 249 -160 78 0 139 26 196 82 81 82 77
19 77 1122 0 536 -3 976 -7 978 -5 2 -21 2 -38 1z"/>
<path d="M3765 4575 c-128 -36 -240 -120 -317 -239 -33 -51 -48 -87 -76 -186
-2 -8 -5 -350 -7 -760 -1 -556 1 -755 10 -786 58 -197 308 -261 452 -117 21
21 48 57 58 78 19 39 20 69 23 1033 l2 992 -47 -1 c-27 0 -70 -7 -98 -14z"/>
<path d="M2295 3711 c-56 -34 -243 -236 -252 -272 -14 -53 -3 -89 38 -130 34
-34 45 -39 84 -39 64 0 86 15 201 132 124 126 134 141 134 196 0 103 -117 168
-205 113z"/>
<path d="M4383 3215 c-209 -63 -267 -328 -101 -469 166 -143 421 -38 444 182
20 187 -163 341 -343 287z"/>
<path d="M1997 2954 c-1 -1 -29 -4 -62 -7 -213 -18 -405 -182 -463 -394 -10
-37 -18 -86 -18 -108 l1 -40 570 1 c626 1 642 2 760 60 167 82 281 245 302
432 3 28 1 52 -3 53 -14 1 -1085 4 -1087 3z"/>
</g>
</svg>
