{"asset":{"generator":"Khronos glTF Spline I/O v0.0.1","version":"2.0"},"scenes":[{"nodes":[0]}],"nodes":[{"name":"","children":[1,2,3,4]},{"name":"Icosahedron","matrix":[1,0,0,0,0,1,0,0,0,0,1,0,0,200,0,1],"mesh":0},{"name":"Sphere","matrix":[1,0,0,0,0,1,0,0,0,0,1,0,0,200,0,1],"mesh":1},{"name":"Directional Light","translation":[100.3968615448967,315.35723958952804,300],"rotation":[-0.40040739768497496,0.06219870824284543,-0.1403312061544455,0.9033893895498808],"extensions":{"KHR_lights_punctual":{"light":0}}},{"name":"Personal Camera","camera":0,"translation":[558.813754210715,760.4367588521579,558.3013815415463],"rotation":[-0.2798481423331214,0.3647051996310008,0.11591689595929512,0.8804762392171493]}],"cameras":[{"type":"orthographic","orthographic":{"xmag":1536,"ymag":754,"zfar":100000,"znear":-100000}}],"meshes":[{"primitives":[{"attributes":{"POSITION":0,"NORMAL":1,"TEXCOORD_0":2}}]},{"primitives":[{"attributes":{"POSITION":4,"NORMAL":5,"TEXCOORD_0":6},"indices":3}]}],"buffers":[{"uri":"data:application/octet-stream;base64,","byteLength":2663040},{"uri":"data:application/octet-stream;base64,","byteLength":183584}],"bufferViews":[{"buffer":0,"byteOffset":0,"byteLength":998640,"target":34962},{"buffer":0,"byteOffset":998640,"byteLength":998640,"target":34962},{"buffer":0,"byteOffset":1997280,"byteLength":665760,"target":34962},{"buffer":1,"byteOffset":0,"byteLength":48384,"target":34963},{"buffer":1,"byteOffset":48384,"byteLength":50700,"target":34962},{"buffer":1,"byteOffset":99084,"byteLength":50700,"target":34962},{"buffer":1,"byteOffset":149784,"byteLength":33800,"target":34962}],"accessors":[{"bufferView":0,"byteOffset":0,"componentType":5126,"count":83220,"type":"VEC3","min":[-166.76318359375,-166.76318359375,-166.76318359375],"max":[166.76318359375,166.76318359375,166.76318359375]},{"bufferView":1,"byteOffset":0,"componentType":5126,"count":83220,"type":"VEC3","min":[-0.9998490810394287,-0.9998490810394287,-0.9998490810394287],"max":[0.9998490810394287,0.9998490810394287,0.9998490810394287]},{"bufferView":2,"byteOffset":0,"componentType":5126,"count":83220,"type":"VEC2","min":[0,0.13231119513511658],"max":[1.067273497581482,0.867688775062561]},{"bufferView":3,"byteOffset":0,"componentType":5123,"count":24192,"type":"SCALAR","min":[0],"max":[4224]},{"bufferView":4,"byteOffset":0,"componentType":5126,"count":4225,"type":"VEC3","min":[-50,-50,-50],"max":[50,50,50]},{"bufferView":5,"byteOffset":0,"componentType":5126,"count":4225,"type":"VEC3","min":[-1,-1,-1],"max":[1,1,1]},{"bufferView":6,"byteOffset":0,"componentType":5126,"count":4225,"type":"VEC2","min":[-0.0078125,0],"max":[1.0078125,1]}],"extensions":{"KHR_lights_punctual":{"lights":[{"type":"directional","name":"Directional Light","color":[1,1,1],"intensity":0.7}]}},"extensionsUsed":["KHR_lights_punctual"]}