<svg width="273" height="264" viewBox="0 0 273 264" fill="none" xmlns="http://www.w3.org/2000/svg">
<path d="M222.432 60.3657H76.7427V132.262H222.432V60.3657Z" fill="url(#paint0_linear_5_990)"/>
<path d="M222.433 60.3657H237.056C246.589 60.3657 255.731 64.1527 262.472 70.8935C269.213 77.6343 273 86.7768 273 96.3098C273 105.843 269.213 114.985 262.472 121.726C255.731 128.467 246.589 132.254 237.056 132.254H222.433V60.3657Z" fill="url(#paint1_linear_5_990)"/>
<path d="M231.891 70.9417H240.256C246.69 70.9417 252.861 73.4975 257.41 78.047C261.96 82.5964 264.515 88.7668 264.515 95.2007V97.4276C264.515 103.862 261.96 110.032 257.41 114.581C252.861 119.131 246.69 121.687 240.256 121.687H231.891V70.9417Z" fill="url(#paint2_linear_5_990)"/>
<path d="M222.432 72.4319H88.978V132.262H222.432V72.4319Z" fill="url(#paint3_linear_5_990)"/>
<rect x="41.9341" y="144.231" width="54.1073" height="69.2953" fill="url(#paint4_linear_5_990)"/>
<rect x="108.382" y="144.231" width="54.1073" height="69.2953" fill="url(#paint5_linear_5_990)"/>
<rect x="174.83" y="144.231" width="35.1223" height="69.2953" fill="url(#paint6_linear_5_990)"/>
<path d="M222.433 60.3657H209.994V132.262H222.433V60.3657Z" fill="url(#paint7_linear_5_990)"/>
<path d="M108.382 131.891L96.0415 131.891L96.0415 225.867L108.382 225.867L108.382 131.891Z" fill="url(#paint8_linear_5_990)"/>
<path fill-rule="evenodd" clip-rule="evenodd" d="M34.34 131.891L42.4629 131.891L42.4629 225.867H34.34C31.7187 225.867 29.5938 223.742 29.5938 221.121L29.5938 136.637C29.5938 134.016 31.7187 131.891 34.34 131.891ZM168.185 144.231V131.891H42.4631V144.231H168.185ZM168.185 225.867V213.527H42.4631V225.867H168.185Z" fill="url(#paint9_linear_5_990)"/>
<path fill-rule="evenodd" clip-rule="evenodd" d="M174.829 131.891H167.236C164.614 131.891 162.489 134.016 162.489 136.637L162.489 225.867H174.829V225.867H209.952L209.952 225.867H217.546C220.167 225.867 222.292 223.742 222.292 221.121L222.292 131.891L209.952 131.891H174.829ZM209.952 144.231H174.83L174.83 213.527H209.952V144.231Z" fill="url(#paint10_linear_5_990)"/>
<path d="M86.5059 132.415V132.55V136.826V167.978H120.502C121.026 167.978 121.451 167.553 121.451 167.029V136.826V133.364C121.451 132.84 121.026 132.415 120.501 132.415H86.5059Z" fill="url(#paint11_linear_5_990)"/>
<path d="M84.4493 132.415C83.925 132.415 83.5 132.84 83.5 133.364V167.029C83.5 167.553 83.925 167.978 84.4493 167.978H118.445V132.415H84.4493Z" fill="url(#paint12_linear_5_990)"/>
<path d="M112.617 135.819H89.3355C88.287 135.819 87.437 136.669 87.437 137.717V162.387C87.437 163.436 88.287 164.286 89.3355 164.286H112.617C113.666 164.286 114.516 163.436 114.516 162.387V137.717C114.516 136.669 113.666 135.819 112.617 135.819Z" fill="url(#paint13_linear_5_990)"/>
<g filter="url(#filter0_d_5_990)">
<path d="M22 108.347L35.1414 140.667C35.3209 141.11 35.586 141.514 35.9217 141.854C36.2574 142.194 36.6569 142.465 37.0974 142.651C37.5379 142.836 38.0108 142.933 38.4888 142.936C38.9668 142.938 39.4406 142.847 39.8831 142.666L69.3327 130.701C70.2282 130.337 70.9424 129.632 71.3187 128.741C71.6949 127.851 71.7024 126.847 71.3394 125.951L56.149 88.5929C55.7846 87.6996 55.0806 86.9874 54.1916 86.6127C53.3025 86.238 52.3011 86.2315 51.4072 86.5946L26.9365 96.5438L22 108.347Z" fill="url(#paint14_linear_5_990)"/>
</g>
<g filter="url(#filter1_d_5_990)">
<path d="M230.132 89.3622L216.99 121.682C216.811 122.125 216.546 122.529 216.21 122.869C215.874 123.209 215.475 123.48 215.034 123.666C214.594 123.851 214.121 123.948 213.643 123.951C213.165 123.953 212.691 123.861 212.249 123.681L182.799 111.716C181.904 111.352 181.189 110.647 180.813 109.756C180.437 108.866 180.429 107.862 180.792 106.966L195.983 69.6078C196.347 68.7145 197.051 68.0022 197.94 67.6276C198.829 67.2529 199.831 67.2464 200.725 67.6095L225.195 77.5587L230.132 89.3622Z" fill="url(#paint15_linear_5_990)"/>
</g>
<path d="M22 108.347L30.3573 104.952L26.945 96.5437L22 108.347Z" fill="url(#paint16_linear_5_990)"/>
<path d="M230.132 89.3621L221.775 85.9667L225.187 77.5586L230.132 89.3621Z" fill="url(#paint17_linear_5_990)"/>
<path d="M104.541 151.246C105.619 150.489 106.427 149.407 106.848 148.16C107.27 146.912 107.283 145.562 106.886 144.306C106.489 143.05 105.702 141.954 104.639 141.175C103.577 140.397 102.294 139.978 100.976 139.978C99.6593 139.978 98.3764 140.397 97.3138 141.175C96.2513 141.954 95.4643 143.05 95.067 144.306C94.6697 145.562 94.6828 146.912 95.1044 148.16C95.526 149.407 96.3342 150.489 97.4117 151.246L94.7529 160.399H107.192L104.541 151.246Z" fill="url(#paint18_linear_5_990)"/>
<path d="M181.154 55.1923C181.154 56.5242 180.954 57.8485 180.562 59.1211C179.925 61.1617 178.8 63.0161 177.285 64.5233C176.84 64.9737 176.362 65.3898 175.854 65.768C175.52 66.0282 175.169 66.2658 174.804 66.4793C174.44 66.7026 174.064 66.9061 173.678 67.089C173.102 67.3731 172.505 67.611 171.891 67.8002C170.618 68.193 169.294 68.3928 167.962 68.3929H165.507V132.025H96.9209V53.8121C96.9321 50.6828 98.1801 47.6848 100.393 45.4721C102.606 43.2593 105.604 42.0113 108.733 42.0001H167.928C169.577 41.9938 171.212 42.3012 172.746 42.9061C173.172 43.0711 173.587 43.2605 173.991 43.4734C174.194 43.575 174.389 43.6851 174.584 43.8036C174.744 43.8915 174.899 43.9876 175.049 44.0915C175.85 44.5975 176.591 45.1911 177.259 45.8612C178.157 46.7609 178.921 47.7845 179.529 48.901C179.939 49.6534 180.274 50.4448 180.528 51.2634L180.706 51.8985C180.815 52.3227 180.903 52.7523 180.968 53.1855C181.082 53.8486 181.144 54.5195 181.154 55.1923Z" fill="url(#paint19_linear_5_990)"/>
<path d="M181.155 55.1922C181.154 56.5241 180.955 57.8484 180.562 59.121C180.302 59.9376 179.968 60.7284 179.563 61.4834C178.949 62.5983 178.183 63.6216 177.285 64.5232C176.84 64.9736 176.362 65.3897 175.854 65.7679C175.515 66.022 175.168 66.2506 174.804 66.4792C174.44 66.7025 174.064 66.906 173.678 67.0889C173.101 67.3694 172.503 67.6072 171.891 67.8001C170.619 68.1929 169.294 68.3927 167.962 68.3928H165.507V53.812C165.512 51.4803 166.205 49.202 167.499 47.2621C168.793 45.3223 170.63 43.807 172.78 42.906C173.204 43.0754 173.627 43.2616 174.025 43.4733C174.228 43.5749 174.423 43.685 174.618 43.8035C174.778 43.8914 174.933 43.9875 175.083 44.0914C175.884 44.5974 176.625 45.191 177.293 45.8611C178.191 46.7608 178.955 47.7844 179.563 48.9009C179.97 49.655 180.304 50.446 180.562 51.2633L180.74 51.8984C180.85 52.3224 180.938 52.752 181.002 53.1854C181.105 53.8494 181.156 54.5203 181.155 55.1922Z" fill="url(#paint20_linear_5_990)"/>
<path d="M151.815 108.858H108.504C107.779 108.858 107.191 109.444 107.191 110.167C107.191 110.889 107.779 111.475 108.504 111.475H151.815C152.539 111.475 153.127 110.889 153.127 110.167C153.127 109.444 152.539 108.858 151.815 108.858Z" fill="#A5C4F1"/>
<path d="M151.815 95.4377H108.504C107.779 95.4377 107.191 96.0235 107.191 96.746C107.191 97.4685 107.779 98.0542 108.504 98.0542H151.815C152.539 98.0542 153.127 97.4685 153.127 96.746C153.127 96.0235 152.539 95.4377 151.815 95.4377Z" fill="#A5C4F1"/>
<path d="M151.814 82.0083H123.923C123.198 82.0083 122.61 82.594 122.61 83.3165C122.61 84.039 123.198 84.6247 123.923 84.6247H151.814C152.539 84.6247 153.127 84.039 153.127 83.3165C153.127 82.594 152.539 82.0083 151.814 82.0083Z" fill="#A5C4F1"/>
<path d="M133.517 68.5791H108.199C107.643 68.5791 107.191 69.0302 107.191 69.5867V70.1879C107.191 70.7444 107.643 71.1955 108.199 71.1955H133.517C134.073 71.1955 134.524 70.7444 134.524 70.1879V69.5867C134.524 69.0302 134.073 68.5791 133.517 68.5791Z" fill="#A5C4F1"/>
<path d="M117.818 82.0083H108.504C107.779 82.0083 107.191 82.594 107.191 83.3165C107.191 84.039 107.779 84.6247 108.504 84.6247H117.818C118.543 84.6247 119.13 84.039 119.13 83.3165C119.13 82.594 118.543 82.0083 117.818 82.0083Z" fill="#A5C4F1"/>
<path d="M42.4087 144.231H46.6803V213.527H42.4087V144.231Z" fill="url(#paint21_linear_5_990)"/>
<path d="M108.382 167.962H112.179V213.526H108.382V167.962Z" fill="url(#paint22_linear_5_990)"/>
<path d="M174.83 144.231H179.102V213.527H174.83V144.231Z" fill="url(#paint23_linear_5_990)"/>
<g filter="url(#filter2_f_5_990)">
<ellipse cx="58.5786" cy="85.7574" rx="36.5786" ry="11.7574" fill="#FF4C77" fill-opacity="0.3"/>
</g>
<path d="M24.2779 68.6242C24.9834 73.8909 27.0114 78.8932 30.1727 83.1643C33.334 87.4354 37.5256 90.8362 42.3565 93.0495C47.1874 95.2628 52.5002 96.2164 57.7992 95.8214C63.0983 95.4264 68.211 93.6956 72.6604 90.7906L84.7827 94.9116C85.1484 95.0322 85.541 95.0454 85.914 94.9499C86.287 94.8543 86.6248 94.654 86.8875 94.3725C87.1502 94.091 87.3268 93.7402 87.3964 93.3615C87.4661 92.9828 87.4258 92.5921 87.2804 92.2356L82.4189 80.6395C85.0045 76.3322 86.5206 71.4682 86.8405 66.4547C87.1604 61.4411 86.2746 56.4239 84.2574 51.823C82.2402 47.222 79.1502 43.1712 75.2461 40.0096C71.3419 36.848 66.7373 34.6676 61.8175 33.6509C56.8977 32.6341 51.806 32.8107 46.9684 34.1658C42.1309 35.5208 37.6884 38.015 34.0126 41.4395C30.3369 44.8639 27.5349 49.119 25.8413 53.8487C24.1476 58.5783 23.6116 63.6449 24.2779 68.6242Z" fill="url(#paint24_linear_5_990)"/>
<path d="M54.6285 80.545C58.0439 80.545 60.4767 78.2057 60.4767 74.9307C60.4767 71.6557 58.0439 69.3164 54.6285 69.3164C51.2599 69.3164 48.7803 71.6557 48.7803 74.9307C48.7803 78.2057 51.2599 80.545 54.6285 80.545ZM59.3071 68.3807C59.3071 65.2929 61.0849 64.17 63.5178 63.0471C66.746 61.55 69.1321 58.5089 69.1321 54.7661C69.1321 48.8711 63.3306 44.7539 55.4706 44.7539C47.0492 44.7539 41.1074 49.4793 40.5928 56.0761L51.3535 58.0411C51.6342 55.4678 52.991 53.6432 54.9092 53.6432C56.3596 53.6432 57.4356 54.6257 57.4356 55.9825C57.4356 57.5732 55.8449 58.5557 54.5817 59.3043C51.2131 61.5032 49.9499 63.9361 49.9499 68.3807H59.3071Z" fill="white"/>
<path d="M211.886 46.0964C211.886 48.7419 209.742 50.8865 207.096 50.8865C204.451 50.8865 202.306 48.7419 202.306 46.0964C202.306 43.451 204.451 41.3064 207.096 41.3064C209.742 41.3064 211.886 43.451 211.886 46.0964Z" stroke="url(#paint25_linear_5_990)" stroke-width="2.61276"/>
<circle cx="179.096" cy="237.096" r="4.79006" stroke="url(#paint26_linear_5_990)" stroke-width="2.61276"/>
<path d="M18.0311 175.236C19.3551 175.024 20.4121 176.325 19.9337 177.577L16.7047 186.033C16.2263 187.285 14.5713 187.55 13.7257 186.51L8.01772 179.486C7.17209 178.445 7.77007 176.879 9.09406 176.667L18.0311 175.236Z" fill="url(#paint27_linear_5_990)"/>
<path d="M238.978 168.006C238.647 166.707 239.846 165.536 241.137 165.899L249.851 168.348C251.141 168.71 251.555 170.335 250.596 171.271L244.119 177.593C243.159 178.529 241.546 178.076 241.214 176.777L238.978 168.006Z" fill="url(#paint28_linear_5_990)"/>
<path d="M122.87 8.41711C123.385 6.28414 126.419 6.28414 126.934 8.41711L128.667 15.5959C128.851 16.3582 129.446 16.9533 130.208 17.1373L137.387 18.8702C139.52 19.3851 139.52 22.419 137.387 22.9339L130.208 24.6668C129.446 24.8508 128.851 25.446 128.667 26.2082L126.934 33.387C126.419 35.52 123.385 35.52 122.87 33.387L121.137 26.2082C120.953 25.446 120.358 24.8508 119.596 24.6668L112.417 22.9339C110.284 22.419 110.284 19.3851 112.417 18.8702L119.596 17.1373C120.358 16.9533 120.953 16.3582 121.137 15.5959L122.87 8.41711Z" fill="url(#paint29_linear_5_990)"/>
<path d="M69.8702 230.417C70.3851 228.284 73.419 228.284 73.9339 230.417L75.6668 237.596C75.8508 238.358 76.446 238.953 77.2082 239.137L84.387 240.87C86.52 241.385 86.52 244.419 84.387 244.934L77.2082 246.667C76.446 246.851 75.8508 247.446 75.6668 248.208L73.9339 255.387C73.419 257.52 70.3851 257.52 69.8702 255.387L68.1373 248.208C67.9533 247.446 67.3582 246.851 66.5959 246.667L59.4171 244.934C57.2841 244.419 57.2841 241.385 59.4171 240.87L66.5959 239.137C67.3582 238.953 67.9533 238.358 68.1373 237.596L69.8702 230.417Z" fill="url(#paint30_linear_5_990)"/>
<defs>
<filter id="filter0_d_5_990" x="19.1522" y="86.3269" width="68.5913" height="76.5433" filterUnits="userSpaceOnUse" color-interpolation-filters="sRGB">
<feFlood flood-opacity="0" result="BackgroundImageFix"/>
<feColorMatrix in="SourceAlpha" type="matrix" values="0 0 0 0 0 0 0 0 0 0 0 0 0 0 0 0 0 0 127 0" result="hardAlpha"/>
<feOffset dx="6.64476" dy="10.4418"/>
<feGaussianBlur stdDeviation="4.74626"/>
<feComposite in2="hardAlpha" operator="out"/>
<feColorMatrix type="matrix" values="0 0 0 0 0.184314 0 0 0 0 0.254902 0 0 0 0 0.443137 0 0 0 0.15 0"/>
<feBlend mode="normal" in2="BackgroundImageFix" result="effect1_dropShadow_5_990"/>
<feBlend mode="normal" in="SourceGraphic" in2="effect1_dropShadow_5_990" result="shape"/>
</filter>
<filter id="filter1_d_5_990" x="177.678" y="67.3418" width="68.5913" height="76.5433" filterUnits="userSpaceOnUse" color-interpolation-filters="sRGB">
<feFlood flood-opacity="0" result="BackgroundImageFix"/>
<feColorMatrix in="SourceAlpha" type="matrix" values="0 0 0 0 0 0 0 0 0 0 0 0 0 0 0 0 0 0 127 0" result="hardAlpha"/>
<feOffset dx="6.64476" dy="10.4418"/>
<feGaussianBlur stdDeviation="4.74626"/>
<feComposite in2="hardAlpha" operator="out"/>
<feColorMatrix type="matrix" values="0 0 0 0 0.184314 0 0 0 0 0.254902 0 0 0 0 0.443137 0 0 0 0.15 0"/>
<feBlend mode="normal" in2="BackgroundImageFix" result="effect1_dropShadow_5_990"/>
<feBlend mode="normal" in="SourceGraphic" in2="effect1_dropShadow_5_990" result="shape"/>
</filter>
<filter id="filter2_f_5_990" x="0.227005" y="52.227" width="116.703" height="67.0608" filterUnits="userSpaceOnUse" color-interpolation-filters="sRGB">
<feFlood flood-opacity="0" result="BackgroundImageFix"/>
<feBlend mode="normal" in="SourceGraphic" in2="BackgroundImageFix" result="shape"/>
<feGaussianBlur stdDeviation="10.8865" result="effect1_foregroundBlur_5_990"/>
</filter>
<linearGradient id="paint0_linear_5_990" x1="149.588" y1="60.3657" x2="149.588" y2="132.262" gradientUnits="userSpaceOnUse">
<stop stop-color="#ABCCFF"/>
<stop offset="1" stop-color="#70A8FF"/>
</linearGradient>
<linearGradient id="paint1_linear_5_990" x1="247.716" y1="60.3657" x2="247.716" y2="132.254" gradientUnits="userSpaceOnUse">
<stop stop-color="#70A8FF"/>
<stop offset="1" stop-color="#5597FD"/>
</linearGradient>
<linearGradient id="paint2_linear_5_990" x1="269.28" y1="123.348" x2="237.005" y2="80.6314" gradientUnits="userSpaceOnUse">
<stop stop-color="#EDF4FF"/>
<stop offset="1" stop-color="#ABCCFF"/>
</linearGradient>
<linearGradient id="paint3_linear_5_990" x1="155.705" y1="72.4319" x2="155.705" y2="132.262" gradientUnits="userSpaceOnUse">
<stop stop-color="#2A64BE"/>
<stop offset="1" stop-color="#6095E7"/>
</linearGradient>
<linearGradient id="paint4_linear_5_990" x1="110.755" y1="239.156" x2="44.3072" y2="176.506" gradientUnits="userSpaceOnUse">
<stop stop-color="#EDF4FF"/>
<stop offset="1" stop-color="#ABCCFF"/>
</linearGradient>
<linearGradient id="paint5_linear_5_990" x1="165.337" y1="219.697" x2="98.8893" y2="192.168" gradientUnits="userSpaceOnUse">
<stop stop-color="#EDF4FF"/>
<stop offset="1" stop-color="#ABCCFF"/>
</linearGradient>
<linearGradient id="paint6_linear_5_990" x1="224.191" y1="221.121" x2="162.49" y2="162.742" gradientUnits="userSpaceOnUse">
<stop stop-color="#EDF4FF"/>
<stop offset="1" stop-color="#ABCCFF"/>
</linearGradient>
<linearGradient id="paint7_linear_5_990" x1="216.213" y1="60.3657" x2="216.213" y2="132.262" gradientUnits="userSpaceOnUse">
<stop stop-color="#ABCCFF"/>
<stop offset="1" stop-color="#70A8FF"/>
</linearGradient>
<linearGradient id="paint8_linear_5_990" x1="80.8535" y1="160.843" x2="72.3102" y2="243.903" gradientUnits="userSpaceOnUse">
<stop stop-color="#ABCCFF"/>
<stop offset="1" stop-color="#70A8FF"/>
</linearGradient>
<linearGradient id="paint9_linear_5_990" x1="27.2206" y1="148.503" x2="162.964" y2="211.154" gradientUnits="userSpaceOnUse">
<stop stop-color="#ABCCFF"/>
<stop offset="1" stop-color="#70A8FF"/>
</linearGradient>
<linearGradient id="paint10_linear_5_990" x1="269.28" y1="190.27" x2="184.322" y2="193.118" gradientUnits="userSpaceOnUse">
<stop stop-color="#70A8FF"/>
<stop offset="1" stop-color="#5597FD"/>
</linearGradient>
<linearGradient id="paint11_linear_5_990" x1="103.978" y1="132.415" x2="103.978" y2="167.978" gradientUnits="userSpaceOnUse">
<stop stop-color="#70A8FF"/>
<stop offset="1" stop-color="#5597FD"/>
</linearGradient>
<linearGradient id="paint12_linear_5_990" x1="100.972" y1="132.415" x2="100.972" y2="167.978" gradientUnits="userSpaceOnUse">
<stop stop-color="#ABCCFF"/>
<stop offset="1" stop-color="#70A8FF"/>
</linearGradient>
<linearGradient id="paint13_linear_5_990" x1="100.976" y1="135.819" x2="100.976" y2="164.286" gradientUnits="userSpaceOnUse">
<stop stop-color="#70A8FF"/>
<stop offset="1" stop-color="#5597FD"/>
</linearGradient>
<linearGradient id="paint14_linear_5_990" x1="66.2227" y1="111.521" x2="32.8226" y2="108.186" gradientUnits="userSpaceOnUse">
<stop stop-color="#C6DDFF"/>
<stop offset="1" stop-color="white"/>
</linearGradient>
<linearGradient id="paint15_linear_5_990" x1="185.909" y1="92.5354" x2="219.309" y2="89.2006" gradientUnits="userSpaceOnUse">
<stop stop-color="#C6DDFF"/>
<stop offset="1" stop-color="white"/>
</linearGradient>
<linearGradient id="paint16_linear_5_990" x1="26.1787" y1="96.5437" x2="26.1787" y2="108.347" gradientUnits="userSpaceOnUse">
<stop stop-color="#EDF4FF"/>
<stop offset="1" stop-color="#ABCCFF"/>
</linearGradient>
<linearGradient id="paint17_linear_5_990" x1="225.953" y1="77.5586" x2="225.953" y2="89.3621" gradientUnits="userSpaceOnUse">
<stop stop-color="#EDF4FF"/>
<stop offset="1" stop-color="#ABCCFF"/>
</linearGradient>
<linearGradient id="paint18_linear_5_990" x1="97.94" y1="154.673" x2="110.28" y2="155.147" gradientUnits="userSpaceOnUse">
<stop stop-color="#2A64BE"/>
<stop offset="1" stop-color="#4B80D1"/>
</linearGradient>
<linearGradient id="paint19_linear_5_990" x1="139.038" y1="42" x2="139.038" y2="132.025" gradientUnits="userSpaceOnUse">
<stop stop-color="#EDF4FF"/>
<stop offset="1" stop-color="#ABCCFF"/>
</linearGradient>
<linearGradient id="paint20_linear_5_990" x1="175.304" y1="64.9687" x2="156.794" y2="50.7299" gradientUnits="userSpaceOnUse">
<stop stop-color="#EDF4FF"/>
<stop offset="1" stop-color="#ABCCFF"/>
</linearGradient>
<linearGradient id="paint21_linear_5_990" x1="12.5073" y1="210.204" x2="102.362" y2="200.11" gradientUnits="userSpaceOnUse">
<stop offset="0.09375" stop-color="#2A64BE"/>
<stop offset="1" stop-color="#2A64BE" stop-opacity="0"/>
</linearGradient>
<linearGradient id="paint22_linear_5_990" x1="81.8028" y1="211.342" x2="160.859" y2="199.336" gradientUnits="userSpaceOnUse">
<stop offset="0.09375" stop-color="#2A64BE"/>
<stop offset="1" stop-color="#2A64BE" stop-opacity="0"/>
</linearGradient>
<linearGradient id="paint23_linear_5_990" x1="144.929" y1="210.204" x2="218.57" y2="216.666" gradientUnits="userSpaceOnUse">
<stop offset="0.09375" stop-color="#265FB8"/>
<stop offset="1" stop-color="#84B4FF"/>
</linearGradient>
<linearGradient id="paint24_linear_5_990" x1="24.3033" y1="37.2325" x2="86.9793" y2="96.6361" gradientUnits="userSpaceOnUse">
<stop stop-color="#FF8D8D"/>
<stop offset="1" stop-color="#FF3868"/>
</linearGradient>
<linearGradient id="paint25_linear_5_990" x1="199.603" y1="42.2862" x2="218.654" y2="58.7974" gradientUnits="userSpaceOnUse">
<stop stop-color="#94BFFF"/>
<stop offset="1" stop-color="#4C94FE"/>
</linearGradient>
<linearGradient id="paint26_linear_5_990" x1="171.603" y1="233.286" x2="190.654" y2="249.797" gradientUnits="userSpaceOnUse">
<stop stop-color="#94BFFF"/>
<stop offset="1" stop-color="#4C94FE"/>
</linearGradient>
<linearGradient id="paint27_linear_5_990" x1="21.0101" y1="174.759" x2="7.49224" y2="185.744" gradientUnits="userSpaceOnUse">
<stop stop-color="#70A8FF"/>
<stop offset="1" stop-color="#5597FD"/>
</linearGradient>
<linearGradient id="paint28_linear_5_990" x1="238.233" y1="165.083" x2="250.399" y2="177.548" gradientUnits="userSpaceOnUse">
<stop stop-color="#70A8FF"/>
<stop offset="1" stop-color="#5597FD"/>
</linearGradient>
<linearGradient id="paint29_linear_5_990" x1="124.902" y1="0" x2="124.902" y2="41.8041" gradientUnits="userSpaceOnUse">
<stop stop-color="#70A8FF"/>
<stop offset="1" stop-color="#5597FD"/>
</linearGradient>
<linearGradient id="paint30_linear_5_990" x1="71.9021" y1="222" x2="71.9021" y2="263.804" gradientUnits="userSpaceOnUse">
<stop stop-color="#70A8FF"/>
<stop offset="1" stop-color="#5597FD"/>
</linearGradient>
</defs>
</svg>
