<svg width="512" height="512" viewBox="0 0 512 512" fill="none" xmlns="http://www.w3.org/2000/svg">
<path fill-rule="evenodd" clip-rule="evenodd" d="M286 176C263.909 176 246 193.909 246 216V316C246 327.046 254.954 336 266 336C277.046 336 286 327.046 286 316V176ZM366 216C366 193.909 383.909 176 406 176V316C406 327.046 397.046 336 386 336C374.954 336 366 327.046 366 316V216ZM346 296C346 307.046 337.046 316 326 316C314.954 316 306 307.046 306 296C306 284.954 314.954 276 326 276C337.046 276 346 284.954 346 296Z" fill="url(#paint0_linear_104_4)"/>
<path fill-rule="evenodd" clip-rule="evenodd" d="M186 176H106C106 198.091 123.909 216 146 216H226C226 193.909 208.091 176 186 176ZM151.858 270.142C147.953 266.237 147.953 259.905 151.858 256L166 241.858C169.905 237.953 176.237 237.953 180.142 241.858C184.047 245.763 184.047 252.095 180.142 256L166 270.142C162.095 274.047 155.763 274.047 151.858 270.142ZM106 336C106 313.909 123.909 296 146 296H226C226 318.091 208.091 336 186 336H106Z" fill="white"/>
<defs>
<linearGradient id="paint0_linear_104_4" x1="326" y1="176" x2="326" y2="336" gradientUnits="userSpaceOnUse">
<stop stop-color="#FFCC91"/>
<stop offset="1" stop-color="#FF5B5B"/>
</linearGradient>
</defs>
</svg>
